<svg xmlns="http://www.w3.org/2000/svg">

	<symbol id="delete" viewBox="0 0 24 24" fill='none'>
		<g>
			<path d="M10 12V17" stroke-width="1" stroke-linecap="round" stroke-linejoin="round"/>
			<path d="M14 12V17" stroke-width="1" stroke-linecap="round" stroke-linejoin="round"/>
			<path d="M4 7H20"  stroke-width="1" stroke-linecap="round" stroke-linejoin="round"/>
			<path d="M6 10V18C6 19.6569 7.34315 21 9 21H15C16.6569 21 18 19.6569 18 18V10"  stroke-width="1" stroke-linecap="round" stroke-linejoin="round"/>
			<path d="M9 5C9 3.89543 9.89543 3 11 3H13C14.1046 3 15 3.89543 15 5V7H9V5Z"  stroke-width="1" stroke-linecap="round" stroke-linejoin="round"/>
		</g>
	</symbol>
	<symbol id="edit" viewBox="0 0 24 24" fill="none">
		<path d="M14 6L8 12V16H12L18 10M14 6L17 3L21 7L18 10M14 6L18 10M10 4L4 4L4 20L20 20V14"  stroke-width="1" stroke-linecap="round" stroke-linejoin="round"/>
	</symbol>
	<symbol id="pause" viewBox="0 0 24 24" fill="none">
	
	<path d="M14 19L14 5C14 3.89543 14.8954 3 16 3L17 3C18.1046 3 19 3.89543 19 5L19 19C19 20.1046 18.1046 21 17 21L16 21C14.8954 21 14 20.1046 14 19Z"  stroke-width="1" stroke-linecap="round" stroke-linejoin="round"/>
	<path d="M10 19L10 5C10 3.89543 9.10457 3 8 3L7 3C5.89543 3 5 3.89543 5 5L5 19C5 20.1046 5.89543 21 7 21L8 21C9.10457 21 10 20.1046 10 19Z" stroke-width="1" stroke-linecap="round" stroke-linejoin="round"/>
		
	</symbol>
	<symbol id="finger_down" viewBox="0 0 52 52" fill="none">
	<g>
		<path d="M45.861,28.127c-0.614-1.525-2.226-2.234-3.932-2.985c-1.683-0.741-3.422-1.507-4.077-3.035
			c-1.41-3.292-8.243-9.459-9.886-10.912V8h2.967c0.553,0,1-0.447,1-1V1c0-0.553-0.447-1-1-1h-24c-0.553,0-1,0.447-1,1v6
			c0,0.553,0.447,1,1,1h2.728v3.86c-1.664,2.28-2.657,6.387-2.7,6.567c-0.018,0.076-0.027,0.154-0.027,0.232v13.664
			c0,2.283,1.498,3.817,3.728,3.817c0.806,0,1.416-0.378,1.878-0.926c0.015,0.171,0.023,0.319,0.023,0.438
			c0,2.513,1.389,4.137,3.537,4.137c0.951,0,1.678-0.264,2.218-0.637c0.325,1.123,1.278,2.367,3.102,2.367
			c1.002,0,1.773-0.298,2.347-0.676c0.025,3.723,0.053,7.862,0.053,8.106c0,1.035,1.241,3.049,3.518,3.049
			c1.957,0,3.05-1.837,3.387-2.922c0.026-0.087,0.042-0.176,0.045-0.267l0.623-20.685c0.289,0.182,0.614,0.385,0.975,0.609
			c0.896,0.56,1.847,1.152,2.514,1.597c1.521,1.015,2.723,1.815,4.555,1.815c3.341,0,5.446-0.609,6.259-1.81
			C45.994,29.889,46.269,29.143,45.861,28.127z M7.933,2h22v4h-2.967H10.661H7.933V2z M44.035,29.217
			c-0.303,0.448-1.872,0.931-4.602,0.931c-1.174,0-1.946-0.48-3.445-1.479c-0.68-0.453-1.65-1.059-2.564-1.629
			c-0.979-0.611-2.09-1.305-2.356-1.516c-0.295-0.235-0.698-0.285-1.043-0.125c-0.343,0.159-0.567,0.499-0.579,0.877L28.772,48.59
			C28.633,48.938,28.143,50,27.336,50c-1.127,0-1.501-1.051-1.517-1.051c-0.001,0-0.001,0-0.001,0.001
			c0-0.472-0.094-14.066-0.094-14.066c-0.004-0.528-0.418-0.963-0.945-0.991c-0.528-0.05-0.985,0.356-1.048,0.882l-0.444,3.785
			c-0.185,0.288-0.736,0.961-1.868,0.961c-1.01,0-1.198-0.837-1.24-1.268l-0.628-4.057c-0.08-0.521-0.536-0.894-1.077-0.843
			c-0.524,0.047-0.924,0.493-0.911,1.021l0.063,2.595c-0.107,0.258-0.463,0.821-1.526,0.821c-1.271,0-1.537-1.162-1.537-2.137
			c0-1.21-0.579-4.337-0.644-4.689c-0.093-0.49-0.55-0.857-1.026-0.815c-0.497,0.021-0.903,0.405-0.952,0.9
			c-0.139,1.393-0.755,3.093-1.277,3.093c-1.428,0-1.728-0.988-1.728-1.817V18.78c0.311-1.255,1.285-4.459,2.502-5.947
			c0.146-0.179,0.226-0.402,0.226-0.633V8h14.306v3.648c0,0.29,0.126,0.565,0.345,0.755c2.307,2.004,8.547,7.795,9.703,10.491
			c0.966,2.254,3.167,3.224,5.109,4.078c1.322,0.582,2.572,1.133,2.882,1.901C44.103,29.116,44.055,29.187,44.035,29.217z"/>
	</g>
	</symbol>
	<symbol id="close" viewBox="0 0 1024 1024">
		<path  d="M195.2 195.2a64 64 0 0 1 90.496 0L512 421.504 738.304 195.2a64 64 0 0 1 90.496 90.496L602.496 512 828.8 738.304a64 64 0 0 1-90.496 90.496L512 602.496 285.696 828.8a64 64 0 0 1-90.496-90.496L421.504 512 195.2 285.696a64 64 0 0 1 0-90.496z"/>
	</symbol>

	<symbol id="pencil" viewBox="0 0 24 24" >
		<g>
			<path d="M22.939 2.825l-1.763-1.763a1.203 1.203 0 0 0-1.726-.037L3.55 16.927l-2.343 5.465a.306.306 0 0 0 .403.402l5.465-2.342 14.1-14.102v-.002l1.802-1.797a1.203 1.203 0 0 0-.037-1.726zM2.809 21.192L4.21 17.92l1.871 1.87zm4.1-1.99l-2.111-2.11L18.09 3.798l2.111 2.11zM22.27 3.843l-1.36 1.36L18.8 3.09l1.358-1.359a.163.163 0 0 1 .121-.054.285.285 0 0 1 .193.092l1.76 1.762c.018.017.171.178.038.311z"/>
		</g>
	</symbol>
	<symbol id="save" viewBox="0 0 24 24">
		<path d="M17 20.75H7C6.27065 20.75 5.57118 20.4603 5.05546 19.9445C4.53973 19.4288 4.25 18.7293 4.25 18V6C4.25 5.27065 4.53973 4.57118 5.05546 4.05546C5.57118 3.53973 6.27065 3.25 7 3.25H14.5C14.6988 3.25018 14.8895 3.32931 15.03 3.47L19.53 8C19.6707 8.14052 19.7498 8.33115 19.75 8.53V18C19.75 18.7293 19.4603 19.4288 18.9445 19.9445C18.4288 20.4603 17.7293 20.75 17 20.75ZM7 4.75C6.66848 4.75 6.35054 4.8817 6.11612 5.11612C5.8817 5.35054 5.75 5.66848 5.75 6V18C5.75 18.3315 5.8817 18.6495 6.11612 18.8839C6.35054 19.1183 6.66848 19.25 7 19.25H17C17.3315 19.25 17.6495 19.1183 17.8839 18.8839C18.1183 18.6495 18.25 18.3315 18.25 18V8.81L14.19 4.75H7Z"/>
		<path d="M16.75 20H15.25V13.75H8.75V20H7.25V13.5C7.25 13.1685 7.3817 12.8505 7.61612 12.6161C7.85054 12.3817 8.16848 12.25 8.5 12.25H15.5C15.8315 12.25 16.1495 12.3817 16.3839 12.6161C16.6183 12.8505 16.75 13.1685 16.75 13.5V20Z"/>
		<path d="M12.47 8.75H8.53001C8.3606 8.74869 8.19311 8.71403 8.0371 8.64799C7.88109 8.58195 7.73962 8.48582 7.62076 8.36511C7.5019 8.24439 7.40798 8.10144 7.34437 7.94443C7.28075 7.78741 7.24869 7.61941 7.25001 7.45V4H8.75001V7.25H12.25V4H13.75V7.45C13.7513 7.61941 13.7193 7.78741 13.6557 7.94443C13.592 8.10144 13.4981 8.24439 13.3793 8.36511C13.2604 8.48582 13.1189 8.58195 12.9629 8.64799C12.8069 8.71403 12.6394 8.74869 12.47 8.75Z" />
	</symbol>
	<symbol id="danger" viewBox="0 0 24 24">
		<path d="M12 9V14" stroke-width="1.5" stroke-linecap="round" stroke-linejoin="round"/>
		<path d="M12.0001 21.41H5.94005C2.47005 21.41 1.02005 18.93 2.70005 15.9L5.82006 10.28L8.76006 5.00003C10.5401 1.79003 13.4601 1.79003 15.2401 5.00003L18.1801 10.29L21.3001 15.91C22.9801 18.94 21.5201 21.42 18.0601 21.42H12.0001V21.41Z" stroke-width="1.5" stroke-linecap="round" stroke-linejoin="round"/>
		<path d="M11.9945 17H12.0035" stroke-width="2" stroke-linecap="round" stroke-linejoin="round"/>
	</symbol>
	<symbol id="roll_up" viewBox="0 0 24 24">
		<g>
			<polyline fill="none" points="19 17.9 12 10.9 5 17.9"  stroke-linecap="round" stroke-linejoin="round" stroke-width="2"/>
			<line fill="none" stroke-linecap="round" stroke-linejoin="round" stroke-width="2" x1="19" x2="5" y1="6.1" y2="6.1"/>
		</g>
	</symbol>
</svg>